<?xml version="1.0" standalone="no"?>
<!DOCTYPE svg PUBLIC "-//W3C//DTD SVG 20010904//EN"
 "http://www.w3.org/TR/2001/REC-SVG-20010904/DTD/svg10.dtd">
<svg version="1.0" xmlns="http://www.w3.org/2000/svg"
 width="32.000000pt" height="32.000000pt" viewBox="0 0 32.000000 32.000000"
 preserveAspectRatio="xMidYMid meet">

<g transform="translate(0.000000,32.000000) scale(0.100000,-0.100000)"
fill="#c52828" stroke="none">
<path d="M15 269 c-15 -24 17 -29 151 -27 116 3 139 6 139 18 0 12 -24 15
-142 18 -96 2 -144 -1 -148 -9z"/>
<path d="M15 169 c-15 -24 17 -29 151 -27 116 3 139 6 139 18 0 12 -24 15
-142 18 -96 2 -144 -1 -148 -9z"/>
<path d="M15 69 c-15 -24 17 -29 151 -27 116 3 139 6 139 18 0 12 -24 15 -142
18 -96 2 -144 -1 -148 -9z"/>
</g>
</svg>
