<svg width="65" height="72" viewBox="0 0 65 72" fill="none" xmlns="http://www.w3.org/2000/svg">
<path d="M48.13 42.5412C47.996 42.6852 47.877 42.8432 47.775 43.0122C47.658 43.1622 47.568 43.3312 47.509 43.5122C47.419 43.6882 47.359 43.8772 47.332 44.0722C47.212 44.6362 47.274 45.2232 47.509 45.7502C47.642 46.1152 47.853 46.4472 48.129 46.7222C48.405 46.9972 48.738 47.2082 49.105 47.3402C49.455 47.5052 49.84 47.5862 50.227 47.5762C50.611 47.5802 50.993 47.5102 51.35 47.3692C51.703 47.1992 52.031 46.9812 52.325 46.7222C52.599 46.4472 52.815 46.1202 52.963 45.7622C53.11 45.4032 53.184 45.0192 53.182 44.6312C53.192 44.2452 53.111 43.8622 52.945 43.5122C52.796 43.1552 52.586 42.8272 52.325 42.5412C52.049 42.2682 51.722 42.0522 51.362 41.9052C51.002 41.7592 50.616 41.6842 50.227 41.6872C49.841 41.6912 49.46 41.7712 49.105 41.9222C48.742 42.0622 48.411 42.2732 48.13 42.5412ZM35.957 54.7892C35.84 54.9402 35.75 55.1092 35.691 55.2902C35.58 55.4622 35.5 55.6512 35.455 55.8492C35.366 56.2272 35.366 56.6202 35.455 56.9982L35.632 57.5282L35.898 58.0582L36.252 58.4992C36.833 59.0512 37.606 59.3582 38.409 59.3532C38.798 59.3562 39.183 59.2812 39.543 59.1352C39.903 58.9882 40.231 58.7722 40.507 58.4992C40.768 58.2132 40.978 57.8852 41.127 57.5282C41.311 57.0822 41.382 56.5972 41.334 56.1182C41.287 55.6382 41.121 55.1772 40.853 54.7762C40.584 54.3742 40.221 54.0452 39.795 53.8162C39.369 53.5882 38.893 53.4672 38.409 53.4642C37.627 53.4752 36.878 53.7802 36.311 54.3182L35.957 54.7892ZM48.13 54.3182C47.861 54.5982 47.65 54.9292 47.509 55.2902C47.261 55.8232 47.179 56.4182 47.273 56.9982L47.45 57.5282C47.515 57.7152 47.604 57.8942 47.716 58.0582C47.825 58.2122 47.943 58.3602 48.07 58.4992C48.351 58.7682 48.683 58.9782 49.045 59.1182C49.399 59.2742 49.782 59.3542 50.168 59.3542C50.555 59.3542 50.937 59.2742 51.291 59.1182C51.649 58.9692 51.979 58.7602 52.266 58.4992C52.55 58.2292 52.778 57.9052 52.935 57.5462C53.093 57.1872 53.176 56.8012 53.182 56.4092C53.192 56.0232 53.111 55.6392 52.945 55.2902C52.796 54.9332 52.586 54.6052 52.325 54.3182C52.038 54.0582 51.708 53.8492 51.35 53.7002C50.996 53.5442 50.614 53.4642 50.227 53.4642C49.841 53.4642 49.458 53.5442 49.105 53.7002C48.742 53.8402 48.411 54.0502 48.13 54.3182ZM35.691 45.7502C35.832 46.1112 36.042 46.4422 36.311 46.7222C36.878 47.2602 37.627 47.5652 38.409 47.5762C38.893 47.5732 39.369 47.4522 39.795 47.2242C40.221 46.9952 40.584 46.6662 40.853 46.2642C41.121 45.8632 41.287 45.4022 41.334 44.9232C41.382 44.4432 41.311 43.9582 41.127 43.5122C40.978 43.1552 40.768 42.8272 40.507 42.5412C40.231 42.2682 39.903 42.0522 39.543 41.9052C39.183 41.7592 38.798 41.6842 38.409 41.6872C37.627 41.6982 36.878 42.0032 36.311 42.5412C35.901 42.9552 35.624 43.4802 35.513 44.0522C35.403 44.6232 35.465 45.2142 35.691 45.7502ZM48.13 30.7632C47.869 31.0492 47.659 31.3782 47.509 31.7342C47.283 32.2712 47.221 32.8622 47.331 33.4332C47.442 34.0042 47.72 34.5302 48.13 34.9442C48.411 35.2122 48.742 35.4222 49.105 35.5622C49.458 35.7182 49.841 35.7992 50.227 35.7992C50.614 35.7992 50.996 35.7182 51.35 35.5622C51.708 35.4132 52.038 35.2042 52.325 34.9442C52.599 34.6692 52.815 34.3432 52.963 33.9842C53.11 33.6252 53.184 33.2412 53.182 32.8532C53.192 32.4672 53.111 32.0842 52.945 31.7342C52.796 31.3782 52.586 31.0492 52.325 30.7632C51.91 30.3542 51.382 30.0782 50.809 29.9672C50.236 29.8572 49.643 29.9192 49.105 30.1442C48.742 30.2852 48.411 30.4952 48.13 30.7632ZM11.8182 32.8532V56.4092C11.8182 57.1902 12.1295 57.9392 12.6835 58.4912C13.2376 59.0432 13.9891 59.3532 14.7727 59.3532H26.5909C27.375 59.3532 28.126 59.0432 28.68 58.4912C29.234 57.9392 29.545 57.1902 29.545 56.4092V32.8532C29.545 32.0722 29.234 31.3242 28.68 30.7712C28.126 30.2192 27.375 29.9092 26.5909 29.9092H14.7727C13.9891 29.9092 13.2376 30.2192 12.6835 30.7712C12.1295 31.3242 11.8182 32.0722 11.8182 32.8532ZM23.6364 35.7982V53.4642H17.7273V35.7982H23.6364ZM0 26.9642V62.2982C0 64.6412 0.9338 66.8872 2.5961 68.5442C4.2584 70.2012 6.5129 71.1312 8.8636 71.1312H56.136C58.487 71.1312 60.742 70.2012 62.404 68.5442C64.066 66.8872 65 64.6412 65 62.2982V26.9642C65 24.6222 64.066 22.3752 62.404 20.7182C60.742 19.0622 58.487 18.1312 56.136 18.1312H8.8636C6.5129 18.1312 4.2584 19.0622 2.5961 20.7182C0.9338 22.3752 0 24.6222 0 26.9642ZM56.136 24.0202C56.92 24.0202 57.671 24.3302 58.226 24.8822C58.78 25.4352 59.091 26.1842 59.091 26.9642V62.2982C59.091 63.0792 58.78 63.8282 58.226 64.3802C57.671 64.9322 56.92 65.2422 56.136 65.2422H8.8636C8.08 65.2422 7.3285 64.9322 6.7745 64.3802C6.2204 63.8282 5.9091 63.0792 5.9091 62.2982V26.9642C5.9091 26.1842 6.2204 25.4352 6.7745 24.8822C7.3285 24.3302 8.08 24.0202 8.8636 24.0202H56.136ZM35.957 31.2342C35.84 31.3842 35.75 31.5542 35.691 31.7342C35.601 31.9102 35.541 32.0992 35.514 32.2942C35.425 32.6722 35.425 33.0652 35.514 33.4422L35.691 33.9722L35.957 34.5022L36.311 34.9442C36.878 35.4822 37.627 35.7872 38.409 35.7982C38.893 35.7952 39.369 35.6752 39.795 35.4462C40.221 35.2172 40.584 34.8882 40.853 34.4872C41.121 34.0852 41.287 33.6252 41.334 33.1452C41.382 32.6652 41.311 32.1812 41.127 31.7342C40.978 31.3782 40.768 31.0492 40.507 30.7632C40.231 30.4902 39.903 30.2742 39.543 30.1282C39.183 29.9812 38.798 29.9072 38.409 29.9092C37.627 29.9202 36.878 30.2252 36.311 30.7632L35.957 31.2342Z" fill="#FF3343"/>
<path d="M12.0922 1.03013C11.935 1.19013 11.8109 1.37913 11.727 1.58713C11.6431 1.79413 11.601 2.01613 11.6031 2.24013L11.7415 12.4451C11.7454 12.6691 11.7935 12.8901 11.8831 13.0951C11.9726 13.3011 12.1018 13.4861 12.2632 13.6411C12.4228 13.7991 12.6119 13.9231 12.8196 14.0071C13.0272 14.0911 13.2494 14.1331 13.4734 14.1311L20.2844 14.0381L46.59 13.6811C46.814 13.6781 47.035 13.6291 47.24 13.5401C47.445 13.4501 47.631 13.3211 47.786 13.1601L52.819 7.98813C53.134 7.66513 53.308 7.23013 53.302 6.77813C53.295 6.32713 53.11 5.89613 52.787 5.58213L47.615 0.549136C47.454 0.373136 47.257 0.234132 47.038 0.139132C46.819 0.0451324 46.583 -0.00286752 46.344 0.000132481L20.1119 0.428134L13.3481 0.448131C13.1217 0.457131 12.8986 0.505137 12.688 0.589137C12.5816 0.675137 12.486 0.773136 12.4031 0.882136C12.3421 0.933136 12.2865 0.990134 12.2369 1.05213L12.0922 1.03013ZM45.741 3.47513L49.193 6.83413L45.834 10.2861L21.935 10.6101L21.8426 3.79914L45.741 3.47513ZM18.4492 3.84513L18.5415 10.6561L15.1358 10.6901L15.0438 3.90313L18.4492 3.84513Z" fill="#FF3343"/>
</svg>
