<svg width="64" height="61" viewBox="0 0 64 61" fill="none" xmlns="http://www.w3.org/2000/svg">
<path d="M45.247 12.5161L33.446 0.610055C33.25 0.415055 33.017 0.26106 32.761 0.15606C32.504 0.0510604 32.23 -0.00194544 31.953 5.45578e-05C31.401 0.00205456 30.872 0.221055 30.481 0.610055L0.612 30.374C0.22 30.768 0 31.3011 0 31.857C0 32.412 0.22 32.946 0.612 33.34L12.517 45.245C12.714 45.44 12.947 45.5941 13.203 45.6991C13.459 45.8041 13.734 45.857 14.011 45.855C14.562 45.8531 15.091 45.634 15.483 45.245L21.436 39.2921L39.294 21.4341L45.247 15.4811C45.639 15.0871 45.859 14.5541 45.859 13.9981C45.859 13.4431 45.639 12.9101 45.247 12.5161ZM37.801 16.9751L36.307 15.4811C35.913 15.0901 35.38 14.87 34.824 14.87C34.269 14.87 33.735 15.0901 33.341 15.4811C33.144 15.6771 32.988 15.9101 32.881 16.1661C32.774 16.4221 32.719 16.6971 32.719 16.9751C32.719 17.2531 32.774 17.5271 32.881 17.7841C32.988 18.0401 33.144 18.2731 33.341 18.4681L34.835 19.9621L31.848 22.928L27.389 18.4681C26.986 18.1241 26.469 17.9441 25.939 17.9641C25.41 17.9851 24.908 18.2041 24.533 18.5791C24.158 18.9531 23.939 19.4551 23.918 19.9851C23.898 20.5141 24.078 21.0321 24.423 21.4341L28.882 25.8931L25.895 28.8801L24.423 27.387C24.027 26.991 23.489 26.7681 22.929 26.7681C22.369 26.7681 21.832 26.991 21.436 27.387C21.04 27.783 20.817 28.3201 20.817 28.8801C20.817 29.4411 21.04 29.978 21.436 30.374L22.929 31.846L19.963 34.833L15.483 30.374C15.089 29.982 14.556 29.762 14 29.762C13.444 29.762 12.911 29.982 12.517 30.374C12.125 30.768 11.906 31.3011 11.906 31.857C11.906 32.412 12.125 32.946 12.517 33.34L16.976 37.799L14.011 40.786L5.07098 31.846L31.848 5.06905L40.788 14.0091L37.801 16.9751Z" fill="#FF3343"/>
<path d="M23.138 61.0001H61C61.558 61.0001 62.093 60.7781 62.487 60.3841C62.882 59.9891 63.104 59.4541 63.104 58.8971V21.0341C63.104 20.4771 62.882 19.9421 62.487 19.5471C62.093 19.1531 61.558 18.9311 61 18.9311H48.379C47.822 18.9311 47.286 19.1531 46.892 19.5471C46.498 19.9421 46.276 20.4771 46.276 21.0341V44.1721H23.138C22.58 44.1721 22.045 44.3941 21.651 44.7881C21.256 45.1831 21.035 45.7181 21.035 46.2761V58.8971C21.035 59.4541 21.256 59.9891 21.651 60.3841C22.045 60.7781 22.58 61.0001 23.138 61.0001ZM25.241 48.3791H29.448V50.4831C29.448 51.0411 29.67 51.5761 30.064 51.9701C30.459 52.3651 30.994 52.5861 31.552 52.5861C32.11 52.5861 32.645 52.3651 33.039 51.9701C33.434 51.5761 33.655 51.0411 33.655 50.4831V48.3791H37.862V50.4831C37.862 51.0411 38.084 51.5761 38.478 51.9701C38.873 52.3651 39.408 52.5861 39.966 52.5861C40.523 52.5861 41.058 52.3651 41.453 51.9701C41.847 51.5761 42.069 51.0411 42.069 50.4831V48.3791H46.276V50.4831C46.276 51.0411 46.498 51.5761 46.892 51.9701C47.286 52.3651 47.822 52.5861 48.379 52.5861C48.937 52.5861 49.472 52.3651 49.867 51.9701C50.261 51.5761 50.483 51.0411 50.483 50.4831V48.3791H52.586C53.144 48.3791 53.679 48.1581 54.074 47.7631C54.468 47.3691 54.69 46.8341 54.69 46.2761C54.69 45.7181 54.468 45.1831 54.074 44.7881C53.679 44.3941 53.144 44.1721 52.586 44.1721H50.483V39.9661H52.586C53.144 39.9661 53.679 39.7441 54.074 39.3491C54.468 38.9551 54.69 38.4201 54.69 37.8621C54.69 37.3041 54.468 36.7691 54.074 36.3751C53.679 35.9801 53.144 35.7591 52.586 35.7591H50.483V31.5521H52.586C53.144 31.5521 53.679 31.3301 54.074 30.9361C54.468 30.5411 54.69 30.0061 54.69 29.4481C54.69 28.8901 54.468 28.3551 54.074 27.9611C53.679 27.5661 53.144 27.3451 52.586 27.3451H50.483V23.1381H58.897V56.7931H25.241V48.3791Z" fill="#FF3343"/>
</svg>
